<?xml version="1.0" encoding="utf-8"?>
<!-- Generator: Adobe Illustrator 19.0.1, SVG Export Plug-In . SVG Version: 6.00 Build 0)  -->
<svg version="1.1" id="Слой_1" xmlns="http://www.w3.org/2000/svg" xmlns:xlink="http://www.w3.org/1999/xlink" x="0px" y="0px"
	 width="4473.6px" height="485.4px" viewBox="0 0 4473.6 485.4" style="enable-background:new 0 0 4473.6 485.4;"
	 xml:space="preserve">
<style type="text/css">
	.st0{fill:#312783;}
</style>
<path class="st0" d="M51.4,201.5l-51.5,98.4l51.9,98.4h87.9l-41.5-98.4l41-98.4H51.4z M175.3,201.5l-51.5,98.4l51.9,98.4h87.9
	l-41.5-98.4l41-98.4H175.3z M4307.7,398.3l51.5-98.4l-51.5-98.4h-87.9l41,98.4l-41,98.4H4307.7z M4431.6,398.3l51.5-98.4l-51.5-98.4
	h-87.9l41,98.4l-41,98.4H4431.6z M550.4,16.2c-160.1,0-252.8,90.1-252.8,234.6c0,144.5,92.7,234.6,252.8,234.6
	c160.1,0,252.8-90.1,252.8-234.6C803.2,106.3,710.5,16.2,550.4,16.2 M550.4,125c65.5,0,70,78.4,70,125.7s-4.5,125.7-70,125.7
	c-65.5,0-70-78.4-70-125.7S484.9,125,550.4,125 M984,182.5H844.3v295.1H984V347.5h2.3l81.1,130.1h156l-101.4-150.4l101.4-144.7
	h-156.6l-80.5,129H984V182.5z M1257.1,182.5v295.1H1399V368.9h50.7v108.7h141.9V182.5h-141.9v101.9H1399V182.5H1257.1z M1836,477.6
	h129.5V289.5c0-88.4-83.3-113.8-162.2-113.8c-41.7,0-94.6,6.2-139.1,18V271c52.4-22,100.8-23.1,103.1-23.1c28.7,0,68.7,5.1,68.7,36
	v9h-19.7c-74.3,0-188.1,1.7-188.1,103.1c0,49,32.7,88.4,103.1,88.4c31.5,0,74.3-5.1,102.5-42.8h2.3V477.6z M1836,349.2v16.3
	c0,33.8-19.7,47.3-39.4,47.3c-19.7,0-33.2-11.8-33.2-28.2c0-37.7,45.1-35.5,65.3-35.5H1836z M2149.4,23.9v453.7h263.8
	c57.7,0,187.3-6.5,187.3-121.2c0-71.3-57-101.1-102.4-107.6v-2.6c56.4-10.4,92-52.5,92-104.3c0-42.1-25.9-118-167.9-118H2149.4z
	 M2314,116h44.7c48,0,61.6,24.6,61.6,43.4c0,13-5.8,44.1-65.5,44.1H2314V116z M2314,292.9h40.2c14.9,0,68.7,0,68.7,46
	c0,16.2-9.1,46.7-64.8,46.7H2314V292.9z M3034.7,346.7c-46.7,14.9-72.6,17.5-89.4,17.5c-108.9,0-125.7-75.2-125.7-117.3
	c0-65.5,48.6-114.1,122.5-114.1c35,0,66.1,7.8,91.4,17.5V30.4l-10.4-1.9c-20.7-3.9-59-12.3-110.8-12.3
	c-202.2,0-275.5,118-275.5,234.6c0,136.8,95.3,234.6,270.9,234.6c33.1,0,74.5-3.9,127-18.1V346.7z M3080.1,23.9v453.7h400.5V370.7
	h-226.8V300h212.6V196.3h-212.6v-65.5h222.3V23.9H3080.1z M3533.8,477.6h147.8V121.2h4.5l86.8,356.5h144.5l89.4-356.5h3.9v356.5
	h155.5V23.9h-256.7l-56.4,248.2h-3.2l-59-248.2h-257.3V477.6z"/>
<path class="st0" d="M863.3,0h-45.6v129.5h45.6V74.5h0.7l29.3,54.9h54.5l-43.9-68.8L944,0h-51.9L864,50.9h-0.7V0z M1006.7-2.2
	c-42.1,0-66.4,25.7-66.4,67c0,41.2,24.3,67,66.4,67s66.4-25.7,66.4-67C1073.1,23.5,1048.7-2.2,1006.7-2.2 M1006.7,28.9
	c17.2,0,18.4,22.4,18.4,35.9c0,13.5-1.2,35.9-18.4,35.9c-17.2,0-18.4-22.4-18.4-35.9C988.3,51.2,989.5,28.9,1006.7,28.9 M1085,129.5
	h38.8V27.7h1.2l22.8,101.7h38l23.5-101.7h1v101.7h40.9V0h-67.4L1169,70.8h-0.9L1152.6,0H1085V129.5z M1268.2,0v129.5h45.6V35.1h29.8
	v94.3h45.6V0H1268.2z M1437,0l-41.7,129.5h45.6l8-27.9h35.8l8.2,27.9h48L1498.4,0H1437z M1467.1,30.7l12.4,40.5h-25.4l12.3-40.5
	H1467.1z M1622.9,44.8h-30.5V0h-45.6v129.5h45.6V81.7h30.5v47.7h45.6V0h-45.6V44.8z M1685.6,0v129.5h53.3L1769,57h0.7v72.5h45.6V0
	H1762l-30.1,74h-0.7V0H1685.6z M1949.5,0h-71.3c-16.9,0-48,1.9-48,34.6c0,18.9,12.4,30.5,27.9,33.3v0.4c-8,1.3-19.9,6.3-23.5,23.7
	l-7.8,37.5h47.7l4.4-32.4c1.5-11.3,9.9-12.8,14.8-12.8h10.2v45.1h45.6V0z M1905.9,28.9v27.7h-11.2c-4.1,0-18.6,0.2-18.6-14.2
	c0-13.1,12.8-13.5,17.9-13.5H1905.9z"/>
</svg>
